. 
  
http://www.torrenting.com/        :     Greatest Movie Tracker on The Net!!!
 
http://www.Torrenting.com          :     Once & For all ;)


               www . Torrenting . Com 

(((((((((((((= Enjoy No RAR releases =))))))))))))))))))))


...................................NFO:....................................

.[img]http://img4.imageshack.us/img4/2879/65545972982540825112.jpg[/img]

[color=blue][size=5][b]Soul.Surfer.2011.BDRip.XVID.AC3.HQ.Hive-CM8[/b][/size][/color]


[b]Thx Hive

CM8 Doing It Right The First Time :D

Source: Bluray

Video: 720x304 @bitrate 1800 2pass
Audio: English DTS to AC3 5.1 @448
Sample: yes included[/b]


[url]http://www.imdb.com/title/tt1596346/[/url]


General
Complete name                    : Soul.Surfer.2011.BDRip.XVID.AC3.HQ.Hive-CM8.avi
Format                           : AVI
Format/Info                      : Audio Video Interleave
File size                        : 1.68 GiB
Duration                         : 1h 46mn
Overall bit rate                 : 2 254 Kbps
Writing application              : Nandub v1.0rc2
Writing library                  : Nandub build 1853/release

Video
ID                               : 0
Format                           : MPEG-4 Visual
Format profile                   : Advanced Simple@L5
Format settings, BVOP            : 1
Format settings, QPel            : Yes
Format settings, GMC             : No warppoints
Format settings, Matrix          : Default (H.263)
Muxing mode                      : Packed bitstream
Codec ID                         : XVID
Codec ID/Hint                    : XviD
Duration                         : 1h 46mn
Bit rate                         : 1 797 Kbps
Width                            : 720 pixels
Height                           : 304 pixels
Display aspect ratio             : 2.40:1
Frame rate                       : 23.976 fps
Color space                      : YUV
Chroma subsampling               : 4:2:0
Bit depth                        : 8 bits
Scan type                        : Progressive
Compression mode                 : Lossy
Bits/(Pixel*Frame)               : 0.342
Stream size                      : 1.34 GiB (80%)
Writing library                  : XviD 1.2.1 (UTC 2008-12-04)

Audio
ID                               : 1
Format                           : AC-3
Format/Info                      : Audio Coding 3
Mode extension                   : CM (complete main)
Codec ID                         : 2000
Duration                         : 1h 46mn
Bit rate mode                    : Constant
Bit rate                         : 448 Kbps
Channel(s)                       : 6 channels
Channel positions                : Front: L C R, Side: L R, LFE
Sampling rate                    : 48.0 KHz
Bit depth                        : 16 bits
Compression mode                 : Lossy
Stream size                      : 341 MiB (20%)
Alignment                        : Split accross interleaves
Interleave, duration             : 42 ms (1.00 video frame)
Interleave, preload duration     : 500 ms



AnnaSophia Robb	... 	Bethany Hamilton
Dennis Quaid	... 	Tom Hamilton
Helen Hunt	... 	Cheri Hamilton
Carrie Underwood	... 	Sarah Hill
Ross Thomas	... 	Noah Hamilton
Lorraine Nicholson	... 	Alana Blanchard
Kevin Sorbo	... 	Holt Blanchard


A teenage surfer girl summons the courage to go back into the ocean after losing an arm in a shark attack. 


[img]http://img684.imageshack.us/img684/4210/63618580.png[/img]
[img]http://img51.imageshack.us/img51/788/ssoo.png[/img]
[img]http://img34.imageshack.us/img34/1981/sssooo.png[/img]
[img]http://img13.imageshack.us/img13/6958/sssosooo.png[/img]
[img]http://img27.imageshack.us/img27/3763/sssososooo.png[/img]
[img]http://img685.imageshack.us/img685/6986/sssosososooo.png[/img]
[img]http://img853.imageshack.us/img853/1866/sssosososoosoo.png[/img]
[img]http://img543.imageshack.us/img543/1001/sssososososoosoo.png[/img]
[img]http://img13.imageshack.us/img13/452/sssosososossooosoo.png[/img]


cover+label:

[img]http://img600.imageshack.us/img600/9927/soulsurfer2011moviecove.jpg[/img]

[img]http://img148.imageshack.us/img148/9818/soullab.jpg[/img]




Greetz

ViSiON,SANTi,MAGNET,THC,T0XiC,LKRG,IMAGiNE,WBZ,FLAWL3SS,NOVA
D2U,Vik,Rapeseed,SAFC,goldadvance,MEMORY100,KaN1vE,Unevano,
Pinnz,Wayne,Mr Hive and all P2P groups 
Great Work Guys :D

FYS

CM8@hushmail.com